# xmcd
#
# Track frame offsets:
#	150
#	12312
#	26422
#	39837
#	52634
#	79963
#	94949
#	105388
#	117830
#	130490
#	138919
#	155846
#	169987
#	180906
#
# Disc length: 2610 seconds
#
# Revision: 1
# Processed by: cddbd v1.5.2PL0 Copyright (c) Steve Scherf et al.
# Submitted via: audiograbber 1.83.01
#
DISCID=a80a300e
DTITLE=Dr. John - High Priest Of Psychedelic Voodoo [CD2]
DYEAR=2015
DGENRE=Blues
TTITLE0=Cat and Mouse Game
TTITLE1=She's Just a Square
TTITLE2=I Pulled the Cover off You Two Lovers
TTITLE3=Go Ahead On
TTITLE4=Bring Your Love
TTITLE5=Zuzu Man
TTITLE6=One Night Late
TTITLE7=Did She Mention My Name?
TTITLE8=The Grass Looks Greener Yonder
TTITLE9=New Orleans
TTITLE10=The Time Had Come
TTITLE11=Loser for You Baby
TTITLE12=The Ear Is on Strike
TTITLE13=Make Your Own
EXTD=YEAR: 2015
EXTT0=
EXTT1=
EXTT2=
EXTT3=
EXTT4=
EXTT5=
EXTT6=
EXTT7=
EXTT8=
EXTT9=
EXTT10=
EXTT11=
EXTT12=
EXTT13=
PLAYORDER=
